<svg xmlns="http://www.w3.org/2000/svg" id="Layer_1" viewBox="0 0 144 144" width="144" height="144"><style>.st0{fill:#fff}</style><path d="M128.31 122.13H15.76c-.31-.05-.62-.12-.93-.15-1.81-.19-3.55-.66-5.15-1.52-5.41-2.92-8.21-7.49-8.22-13.63-.04-13.84.03-27.67.03-41.51 0-9.35-.03-18.71-.06-28.06-.01-3.27.86-6.27 2.79-8.9C7.32 24.11 11.54 22 16.8 22h109.69c.29 0 .59 0 .88.01 5.79.32 10.14 2.99 12.89 8.11.67 1.25 1.01 2.67 1.5 4.01v74.55c-.05.18-.13.36-.16.54-.98 5.71-4.13 9.72-9.5 11.88-1.21.5-2.53.7-3.79 1.03zM16.29 29.93c.26.27.4.43.56.58 17.64 17.6 35.29 35.2 52.93 52.8 1.43 1.43 2.75 1.43 4.17.02 2.52-2.51 5.03-5.03 7.55-7.54 15.08-15.06 30.16-30.13 45.24-45.19.19-.19.37-.39.63-.67H16.29zm102.69 84.66a50062.75 50062.75 0 0 0-32.81-32.9c-4.01 4.03-8.07 8.11-12.13 12.18-1.54 1.55-2.8 1.55-4.33.02-4.04-4.06-8.08-8.12-12.12-12.17-.18-.18-.38-.35-.51-.48-11.13 11.16-22.21 22.28-33.26 33.36 31.71-.01 63.51-.01 95.16-.01zm15.27-80.78c-14.23 14.28-28.34 28.43-42.51 42.65.12.1.31.24.48.42 8.33 8.34 16.67 16.68 25 25.02 3.96 3.96 7.93 7.92 11.87 11.9.35.35.63.41 1.08.24 1.63-.64 2.78-1.76 3.42-3.39.57-1.46.66-2.99.66-4.53V33.81zM51.59 76.15C37.59 62.1 23.72 48.19 9.8 34.23v.73c0 24.26 0 48.52.01 72.79 0 .63.04 1.27.12 1.89.25 1.8.98 3.29 2.68 4.19.56.3.91.25 1.38-.21C26.31 101.28 38.66 88.95 51 76.63c.21-.23.49-.4.59-.48zM897 707c8.65-2.27 17.67-3.66 25.9-6.98 36.79-14.84 58.32-42.22 65.01-81.31.22-1.26.72-2.48 1.09-3.72v92c-30.67.01-61.33.01-92 .01z" class="st0"/></svg>