<svg id="Layer_1" data-name="Layer 1" xmlns="http://www.w3.org/2000/svg" width="2in" height="2in" viewBox="0 0 144 144"><title>Artboard 1</title><path d="M94.6,133.6V87.3h14.6c.6,0,.9-.2,1-.8.7-5.7,1.5-11.3,2.2-16.9,0-.1-.1-.1-.1-.3H94.6v-1c-.1-3.7-.1-7.4-.1-11.1,0-.5.1-.9.1-1.4.5-4.7,2.9-6.8,8.1-6.9,3.1-.1,6.1,0,9.2,0H113V32.7l-3.9-.3c-5-.3-10.1-.7-15.1.1A20.5,20.5,0,0,0,76.5,49.7c-.9,4.4-.6,8.9-.6,13.4v6.1H60.4V87.3H75.8v46.3H18.6a6.5,6.5,0,0,1-6.6-6.5V20.8A6.5,6.5,0,0,1,18.9,14H125a6.5,6.5,0,0,1,6.6,6.6V127.1a6.4,6.4,0,0,1-6.4,6.5H94.6Z" fill="#fff"/></svg>