<svg id="Layer_1" data-name="Layer 1" xmlns="http://www.w3.org/2000/svg" width="2in" height="2in" viewBox="0 0 144 144"><title>Artboard 2</title><path d="M72.1,131.6H47.4a29.8,29.8,0,0,1-9.8-1.8,32.9,32.9,0,0,1-15.5-11,52.7,52.7,0,0,1-4.3-6.2,31.1,31.1,0,0,1-3.4-9.4c-.8-4-.4-8-.4-12.1,0-14.6-.1-29.3,0-43.9a25.8,25.8,0,0,1,2.8-11.6,50.7,50.7,0,0,1,3.7-6.4,27.3,27.3,0,0,1,5.9-6.3,32.5,32.5,0,0,1,9.4-5.3,24.1,24.1,0,0,1,6.9-1.7c15.9-.2,31.8-.2,47.8-.3h5.9a30,30,0,0,1,7.3,1.1,37.4,37.4,0,0,1,8.5,3.6,31,31,0,0,1,4.6,3.5,41.9,41.9,0,0,1,8,9.3,36.3,36.3,0,0,1,4,10.7,29.4,29.4,0,0,1,.5,5.1v51.2a28.9,28.9,0,0,1-1.8,9.2,29.5,29.5,0,0,1-3.7,7.3,29.2,29.2,0,0,1-4.2,5.1,33.1,33.1,0,0,1-5.4,4.5,45.7,45.7,0,0,1-7,3.5,25.2,25.2,0,0,1-4.7,1.3,20.3,20.3,0,0,1-4.2.6Zm48-57.3h-.2c0-8.7.1-17.4-.1-26.1a19.5,19.5,0,0,0-1.2-6.3,23.6,23.6,0,0,0-3.9-6.9,28.3,28.3,0,0,0-8-7A22.8,22.8,0,0,0,95,24.9H86.3l-41.2.2a18.5,18.5,0,0,0-8.9,2.4,24.5,24.5,0,0,0-13,21c0,16.8.1,33.6.3,50.5a19,19,0,0,0,1.2,6.2,21.4,21.4,0,0,0,4.9,8.2,34.4,34.4,0,0,0,6.5,5.5,24,24,0,0,0,12.2,3.5H96.4a28.4,28.4,0,0,0,6.4-1,19.3,19.3,0,0,0,6.5-3,24,24,0,0,0,8-8.8A24.4,24.4,0,0,0,120.1,98Z" fill="#fff"/><path d="M120.1,74.3V98a24.4,24.4,0,0,1-2.8,11.5,24,24,0,0,1-8,8.8,19.3,19.3,0,0,1-6.5,3,28.4,28.4,0,0,1-6.4,1H48.3a24,24,0,0,1-12.2-3.5,34.4,34.4,0,0,1-6.5-5.5,21.4,21.4,0,0,1-4.9-8.2A19,19,0,0,1,23.5,99c-.2-16.9-.3-33.7-.3-50.5a24.5,24.5,0,0,1,13-21,18.5,18.5,0,0,1,8.9-2.4l41.2-.2H95A22.8,22.8,0,0,1,106.7,28a28.3,28.3,0,0,1,8,7,23.6,23.6,0,0,1,3.9,6.9,19.5,19.5,0,0,1,1.2,6.3c.2,8.7.1,17.4.1,26.1ZM71.6,43.8a21,21,0,0,0-8.2,1,25.9,25.9,0,0,0-10,5.2,62,62,0,0,0-4.5,4.4,19.6,19.6,0,0,0-4,6.1c-.9,1.9-1.3,4.1-2.1,6.2s-.5,3.6-.7,5.5a27.2,27.2,0,0,0,.2,4.9,42.1,42.1,0,0,0,1.1,6,30.5,30.5,0,0,0,5,9.2,29,29,0,0,0,8.1,7.1,33.9,33.9,0,0,0,6.8,2.9,24.6,24.6,0,0,0,7.1,1.2c1.5.1,3-.2,4.6-.2a21.4,21.4,0,0,0,6.2-1.3,25.5,25.5,0,0,0,8.7-4.8,45.5,45.5,0,0,0,5.7-5.9,25.9,25.9,0,0,0,4.5-9.1,29.2,29.2,0,0,0,1.1-7.2c0-2.9.2-5.7-.8-8.5s-1.3-4.5-2.3-6.6a36.6,36.6,0,0,0-4-5.7,25.1,25.1,0,0,0-9.9-7.8C80.2,44.6,76.1,43.4,71.6,43.8Zm30.1,6.9c4.8-.2,8.1-3.6,8-8a7.6,7.6,0,0,0-8-7.9,7.7,7.7,0,0,0-8,8A8,8,0,0,0,101.7,50.7Z" fill="none"/><path d="M71.6,43.8c4.5-.4,8.6.8,12.6,2.6a25.1,25.1,0,0,1,9.9,7.8,36.6,36.6,0,0,1,4,5.7c1,2.1,1.5,4.4,2.3,6.6s.8,5.6.8,8.5a29.2,29.2,0,0,1-1.1,7.2,25.9,25.9,0,0,1-4.5,9.1,45.5,45.5,0,0,1-5.7,5.9,25.5,25.5,0,0,1-8.7,4.8,21.4,21.4,0,0,1-6.2,1.3c-1.6,0-3.1.3-4.6.2a24.6,24.6,0,0,1-7.1-1.2,33.9,33.9,0,0,1-6.8-2.9,29,29,0,0,1-8.1-7.1,30.5,30.5,0,0,1-5-9.2,42.1,42.1,0,0,1-1.1-6,27.2,27.2,0,0,1-.2-4.9c.2-1.9,0-3.7.7-5.5s1.2-4.3,2.1-6.2a19.6,19.6,0,0,1,4-6.1A62,62,0,0,1,53.4,50a25.9,25.9,0,0,1,10-5.2A21,21,0,0,1,71.6,43.8Zm.4,9.1a20.4,20.4,0,0,0-14.2,5.4,20.6,20.6,0,0,0-6.5,15.3A20.2,20.2,0,0,0,56,86.9a19.6,19.6,0,0,0,15.7,7.3,19.1,19.1,0,0,0,12.9-4.6,20.1,20.1,0,0,0,7.3-15.9A20.1,20.1,0,0,0,72,52.9Z" fill="#fff"/><path d="M101.7,50.7a8,8,0,0,1-8-7.9,7.7,7.7,0,0,1,8-8,7.6,7.6,0,0,1,8,7.9C109.8,47.1,106.5,50.5,101.7,50.7Z" fill="#fff"/><path d="M72,52.9A20.1,20.1,0,0,1,91.9,73.7a20.1,20.1,0,0,1-7.3,15.9,19.1,19.1,0,0,1-12.9,4.6A19.6,19.6,0,0,1,56,86.9a20.2,20.2,0,0,1-4.7-13.3,20.6,20.6,0,0,1,6.5-15.3A20.4,20.4,0,0,1,72,52.9Z" fill="none"/></svg>