<svg id="Layer_1" data-name="Layer 1" xmlns="http://www.w3.org/2000/svg" width="2in" height="2in" viewBox="0 0 144 144"><title>Artboard 3</title><path d="M71.7,54.3c-.2-.9-.3-1.6-.4-2.3a33.2,33.2,0,0,1-.2-6.3,24.8,24.8,0,0,1,2.8-9.6A26.4,26.4,0,0,1,94.2,21.7a26.1,26.1,0,0,1,20.4,5.9,22.9,22.9,0,0,1,2.3,2.1c.2.1.3.2.5.1a52.2,52.2,0,0,0,10.2-3.1l6.1-3,.4-.2a26.7,26.7,0,0,1-11.6,14.6A50,50,0,0,0,137.6,34l-.6,1a46.6,46.6,0,0,1-7.5,8.5c-1.5,1.4-3.2,2.7-4.9,4.1a.5.5,0,0,0-.3.5c.1,2,.1,4.1,0,6.1a54.6,54.6,0,0,1-.4,5.6c-.4,2.5-.8,5-1.3,7.6a72.9,72.9,0,0,1-4.4,13.7A79.8,79.8,0,0,1,111.9,93a68.9,68.9,0,0,1-6,8.2,92.8,92.8,0,0,1-6.9,7.1A76.3,76.3,0,0,1,87.2,117a72.9,72.9,0,0,1-24.4,8.8c-2,.4-4,.6-6,.8a59.9,59.9,0,0,1-9.5.4c-2.1,0-4.3-.2-6.5-.4a71.8,71.8,0,0,1-21.3-5.4,68.3,68.3,0,0,1-11.4-5.9l-.3-.2c14.6,1.4,27.7-2.1,39.3-11a26.8,26.8,0,0,1-18-7.6,27.1,27.1,0,0,1-6.8-11,24.8,24.8,0,0,0,11.8-.4,26.9,26.9,0,0,1-15.3-9.5,27.2,27.2,0,0,1-5.9-17,26.6,26.6,0,0,0,12,3.3,26.5,26.5,0,0,1-11.5-19,25.9,25.9,0,0,1,3.4-16.5C31.2,43.4,49.4,52.7,71.7,54.3Z" fill="#fff"/></svg>