<svg xmlns="http://www.w3.org/2000/svg" id="Layer_1" viewBox="0 0 144 144" width="144" height="144"><style>.st0{fill:#fff}</style><path d="M17.94 52.27c-1.64-2.16-3.24-4.26-4.98-6.56 3.3-3.41 6.44-6.83 9.77-10.05 5.97-5.8 12.26-11.22 19.77-14.96 2.13-1.06 4.43-1.92 6.75-2.39 5.07-1.03 8.92.97 11.66 5.58 2.47 4.15 3.66 8.75 4.6 13.4 1.45 7.21 2.48 14.51 4.19 21.66 1.63 6.83 3.85 13.53 5.91 20.25.36 1.16 1.09 2.26 1.84 3.24 1.16 1.52 2.44 1.76 3.92.55 1.68-1.37 3.32-2.89 4.65-4.6 4.85-6.25 8.95-12.98 11.92-20.32.78-1.92 1.07-4.18 1.02-6.27-.17-7.16-5.55-10.7-12.29-8.27-1.4.51-2.75 1.15-4.54 1.54.84-2.49 1.51-5.05 2.54-7.46 5.12-12.08 18.36-20.66 31.39-20.43 10.03.18 16.85 6.75 17.56 16.73.41 5.8-.87 11.33-2.5 16.77-4.83 16.16-13.85 29.93-24.69 42.62-7.01 8.2-14.76 15.65-23.21 22.35-2.32 1.84-4.75 3.61-7.33 5.06-5.05 2.84-10.03 2.18-14.77-.94-5.82-3.83-9.19-9.41-11.25-15.9-4.73-14.91-9.41-29.84-14.16-44.74-.98-3.08-2.14-6.1-3.35-9.1-1.06-2.62-2.54-3.47-5.2-2.5-2.71.99-5.23 2.5-7.83 3.81-.47.24-.87.58-1.39.93z" class="st0"/></svg>